<svg xmlns="http://www.w3.org/2000/svg" width="112" height="52" viewBox="0 0 112 52">
    <g fill="#003480" fill-rule="evenodd">
        <path d="M94.559 18.189L94.559 39.539 73.356 31.831 73.356 26.503 80.384 29.086 80.384 13.063 94.559 18.189" transform="matrix(1 0 0 -1 0 52)"/>
        <path d="M86.474 51.97c-8.72 0-16.527-4.41-21.175-11.12l3.739-2.64c3.82 5.501 10.165 9.184 17.325 9.184 11.62 0 20.854-9.624 20.854-21.409 0-11.785-9.234-21.41-20.854-21.41-7.162 0-13.468 3.71-17.289 9.214l-3.807-2.685C69.915 4.39 77.491 0 86.212 0c14.263 0 25.773 11.667 25.773 26.018S100.672 51.97 86.474 51.97" transform="matrix(1 0 0 -1 0 52)"/>
        <path fill-rule="nonzero" d="M53.584 18.13c-.885 0-2.08.045-2.71.146v15.608c.68.04 1.68.064 2.71.064 4.684 0 6.961-2.603 6.961-7.957 0-5.363-2.212-7.862-6.96-7.862m.303 19.876c-2.512 0-4.174-.043-5.509-.078-.83-.022-1.484-.04-2.105-.04h-.115V14.17l.927-.023c1.852-.046 3.95-.098 6.055-.098 8.097 0 12.376 4.195 12.376 12.132 0 7.736-4.02 11.825-11.629 11.825M7.554 23.016l2.293 7.283c.308.972.617 2.099.852 3.1.22-.858.518-1.906.89-3.123l2.299-7.26H7.554zm6.379 14.793l-.027.079H8.02L0 14.118h4.753l1.539 4.887h8.866l1.548-4.886h5.22l-7.993 23.69M29.465 33.936c.36.01 1.573.044 3.345.044 2.594 0 3.855-1.115 3.855-3.41 0-2.261-1.345-3.408-3.995-3.408h-3.205v6.774zm8.512-11.64c-.358.62-.782 1.249-1.118 1.726 2.987 1.066 4.778 3.48 4.778 6.738 0 4.74-2.94 7.246-8.5 7.246-2.46 0-4.707-.05-6.348-.085-.852-.019-1.524-.033-1.907-.033h-.116v-23.77h4.7v9.066h2.6l5.295-9.065h5.652l-5.036 8.178" transform="matrix(1 0 0 -1 0 52)"/>
    </g>
</svg>
