<svg xmlns="http://www.w3.org/2000/svg" width="190" height="24" viewBox="0 0 190 24">
    <g fill="none">
        <path fill="#333" d="M8.672 22.848c2.347 0 4.15-.517 5.408-1.552 1.259-1.035 1.888-2.555 1.888-4.56 0-1.408-.357-2.587-1.072-3.536-.715-.95-1.723-1.584-3.024-1.904 1.13-.427 2.01-1.072 2.64-1.936.63-.864.944-1.915.944-3.152 0-1.92-.619-3.387-1.856-4.4C12.363.795 10.603.288 8.32.288H0v22.56h8.672zM8.16 10.752H1.344V1.536H8.16c3.925 0 5.888 1.493 5.888 4.48 0 1.536-.501 2.71-1.504 3.52-1.003.81-2.464 1.216-4.384 1.216zM8.64 21.6H1.344v-9.568H8.64c1.963 0 3.44.41 4.432 1.232.992.821 1.488 2.032 1.488 3.632s-.485 2.784-1.456 3.552c-.97.768-2.459 1.152-4.464 1.152zm21.568 1.504c2.027 0 3.781-.464 5.264-1.392 1.483-.928 2.624-2.261 3.424-4 .8-1.739 1.2-3.792 1.2-6.16 0-2.368-.395-4.416-1.184-6.144-.79-1.728-1.93-3.056-3.424-3.984C33.995.496 32.235.032 30.208.032s-3.781.464-5.264 1.392c-1.483.928-2.619 2.261-3.408 4-.79 1.739-1.184 3.792-1.184 6.16 0 2.347.4 4.39 1.2 6.128.8 1.739 1.941 3.072 3.424 4 1.483.928 3.227 1.392 5.232 1.392zm0-1.312c-2.667 0-4.736-.896-6.208-2.688-1.472-1.792-2.208-4.31-2.208-7.552 0-3.243.736-5.755 2.208-7.536 1.472-1.781 3.541-2.672 6.208-2.672 2.71 0 4.795.89 6.256 2.672 1.461 1.781 2.192 4.293 2.192 7.536 0 3.243-.736 5.76-2.208 7.552-1.472 1.792-3.552 2.688-6.24 2.688zm22.048 1.056c3.52 0 6.24-.981 8.16-2.944s2.88-4.747 2.88-8.352c0-3.627-.955-6.41-2.864-8.352-1.91-1.941-4.635-2.912-8.176-2.912h-6.944v22.56h6.944zm-.032-1.216h-5.6V1.504h5.6c3.2 0 5.605.843 7.216 2.528 1.61 1.685 2.416 4.192 2.416 7.52 0 3.328-.81 5.84-2.432 7.536-1.621 1.696-4.021 2.544-7.2 2.544zm21.696 1.216V11.904L82.496.288h-1.504L73.28 10.752 65.568.288H64l8.576 11.584v10.976h1.344z" transform="translate(.072 .152)"/>
        <path fill="#0BCDFC" d="M95.232 23.136c1.515 0 2.944-.235 4.288-.704 1.344-.47 2.475-1.13 3.392-1.984l-1.376-3.008c-1.024.81-2.037 1.403-3.04 1.776-1.003.373-2.07.56-3.2.56-2.176 0-3.856-.704-5.04-2.112-1.184-1.408-1.776-3.445-1.776-6.112 0-2.645.592-4.672 1.776-6.08 1.184-1.408 2.864-2.112 5.04-2.112 1.13 0 2.197.187 3.2.56 1.003.373 2.016.965 3.04 1.776l1.376-3.008c-.917-.853-2.048-1.515-3.392-1.984C98.176.234 96.747 0 95.232 0c-2.219 0-4.155.475-5.808 1.424-1.653.95-2.923 2.293-3.808 4.032-.885 1.739-1.328 3.77-1.328 6.096 0 2.325.443 4.363 1.328 6.112.885 1.75 2.155 3.099 3.808 4.048 1.653.95 3.59 1.424 5.808 1.424zm26.112-.288v-3.392h-10.528V.288h-4.128v22.56h14.656zm11.936.288c2.176 0 4.07-.47 5.68-1.408 1.61-.939 2.853-2.283 3.728-4.032.875-1.75 1.312-3.797 1.312-6.144s-.432-4.39-1.296-6.128c-.864-1.739-2.101-3.077-3.712-4.016C137.382.469 135.477 0 133.28 0c-2.197 0-4.107.47-5.728 1.408-1.621.939-2.864 2.277-3.728 4.016-.864 1.739-1.296 3.781-1.296 6.128s.437 4.395 1.312 6.144c.875 1.75 2.117 3.093 3.728 4.032 1.61.939 3.515 1.408 5.712 1.408zm0-3.296c-2.09 0-3.717-.715-4.88-2.144-1.163-1.43-1.744-3.477-1.744-6.144 0-2.667.581-4.71 1.744-6.128 1.163-1.419 2.79-2.128 4.88-2.128 2.07 0 3.685.71 4.848 2.128 1.163 1.419 1.744 3.461 1.744 6.128 0 2.667-.581 4.715-1.744 6.144-1.163 1.43-2.779 2.144-4.848 2.144zm25.12 3.296c1.515 0 2.944-.235 4.288-.704 1.344-.47 2.475-1.13 3.392-1.984l-1.376-3.008c-1.024.81-2.037 1.403-3.04 1.776-1.003.373-2.07.56-3.2.56-2.176 0-3.856-.704-5.04-2.112-1.184-1.408-1.776-3.445-1.776-6.112 0-2.645.592-4.672 1.776-6.08 1.184-1.408 2.864-2.112 5.04-2.112 1.13 0 2.197.187 3.2.56 1.003.373 2.016.965 3.04 1.776l1.376-3.008c-.917-.853-2.048-1.515-3.392-1.984C161.344.234 159.915 0 158.4 0c-2.219 0-4.155.475-5.808 1.424-1.653.95-2.923 2.293-3.808 4.032-.885 1.739-1.328 3.77-1.328 6.096 0 2.325.443 4.363 1.328 6.112.885 1.75 2.155 3.099 3.808 4.048 1.653.95 3.59 1.424 5.808 1.424zm15.584-.288V12.352l10.464 10.496h5.024l-11.424-11.712L188.96.288h-4.928l-10.048 10.08V.288h-4.128v22.56h4.128z" transform="translate(.072 .152)"/>
    </g>
</svg>
