<svg xmlns="http://www.w3.org/2000/svg" xmlns:xlink="http://www.w3.org/1999/xlink" width="266" height="31" viewBox="0 0 266 31">
    <defs>
        <path id="prefix__a" d="M0 0H266V31.104H0z"/>
    </defs>
    <g fill="none" fill-rule="evenodd">
        <path fill="#4AC96F" fill-rule="nonzero" d="M0 0H31V31H0zM34 0H266V31H34z"/>
        <path fill="#FFF" fill-rule="nonzero" d="M19.493 26H7v-1.48h12.493V26zm3.51-5.714H7v2.38h16.012l-.01-2.38zM7 7.727h12.502V6H7v1.727zm0 4.447h17.24v-2.61H7v2.61zm19 2.04H7v4.032h19v-4.033z"/>
        <mask id="prefix__b" fill="#fff">
            <use xlink:href="#prefix__a"/>
        </mask>
        <path fill="#FFF" fill-rule="nonzero" d="M40.576 8.402h4.342c4.982 0 7.404 2.844 7.404 7.004v.137c0 4.16-2.422 7.122-7.44 7.122h-4.296l-.01-14.263zm4.214 12.206c3.2 0 4.745-1.829 4.745-5.001v-.156c0-3.08-1.4-4.946-4.763-4.946h-1.536v10.103h1.554zm9.36-3.017v-.156c-.09-1.423.422-2.82 1.412-3.847.989-1.028 2.364-1.592 3.79-1.556 2.605 0 4.945 1.545 4.945 5.285v.694h-7.623c.082 1.984 1.078 3.1 2.879 3.1 1.462 0 2.221-.585 2.404-1.6h2.303c-.338 2.203-2.12 3.401-4.798 3.401-1.435.087-2.837-.446-3.851-1.464-1.015-1.018-1.543-2.423-1.451-3.857m7.742-1.198c-.119-1.828-1.042-2.606-2.541-2.606-1.45 0-2.638 1.148-2.687 2.597l5.228.01zm4.662 2.56v-6.71h2.422v6.4c0 1.581.658 2.303 2.057 2.303.668.034 1.319-.222 1.786-.701.467-.48.705-1.136.655-1.804v-6.217h2.385v10.478h-2.385v-1.673c-.658 1.202-1.951 1.915-3.319 1.828-2.056 0-3.601-1.18-3.601-3.959m12.697.841v-5.677h-1.408v-1.829h1.399V9.938h2.422v2.304h2.303v1.829h-2.303v5.486c0 .914.439 1.344 1.197 1.344.418.02.836-.05 1.225-.202v1.92c-.528.188-1.085.277-1.645.266-2.084 0-3.163-1.125-3.163-3.1m6.152-.338h2.285c.119 1.06.658 1.682 2.075 1.682 1.417 0 1.883-.457 1.883-1.344s-.695-1.18-2.24-1.444c-2.742-.44-3.784-1.216-3.784-3.182 0-2.103 1.966-3.145 3.922-3.145 2.139 0 3.839.804 4.104 3.163h-2.276c-.055-.429-.279-.818-.622-1.081-.344-.263-.778-.377-1.206-.318-1.042 0-1.664.503-1.664 1.244 0 .74.503 1.06 2.157 1.335 2.46.384 3.922.978 3.922 3.2 0 2.221-1.5 3.337-4.178 3.337s-4.278-1.244-4.378-3.465M95.623 17.6v-.155c-.074-1.436.454-2.837 1.457-3.867 1.003-1.029 2.39-1.593 3.826-1.555 2.322 0 4.498 1.042 4.781 3.922h-2.395c-.043-.587-.324-1.13-.778-1.505s-1.042-.548-1.626-.479c-1.664 0-2.843 1.28-2.843 3.438v.155c0 2.277 1.125 3.484 2.898 3.484 1.315.078 2.444-.925 2.523-2.24h2.221c-.183 2.404-2.002 4.105-4.845 4.105-1.428.084-2.824-.449-3.834-1.462-1.01-1.014-1.538-2.412-1.45-3.841M108 7.397h2.422v6.5c.666-1.232 1.985-1.966 3.382-1.883 2.103 0 3.583 1.225 3.583 4.105v6.583h-2.422v-6.4c0-1.582-.64-2.304-2.075-2.304-.67-.042-1.326.209-1.798.688-.471.478-.712 1.138-.66 1.808v6.162h-2.423l-.01-15.26zm12.422 0h2.422v15.305h-2.422V7.397zm4.881 10.249v-.156c0-3.337 2.103-5.485 4.626-5.485 1.336-.058 2.588.652 3.226 1.828v-1.59h2.423v10.459h-2.423v-1.673c-.706 1.169-1.962 1.893-3.327 1.92-2.44 0-4.525-1.829-4.525-5.267m7.926-.119v-.192c0-2.322-1.08-3.437-2.743-3.437-1.663 0-2.742 1.243-2.742 3.501v.156c0 2.304 1.16 3.401 2.623 3.401 1.463 0 2.825-1.125 2.825-3.465m5.42-5.285h2.423v1.655c.665-1.232 1.984-1.966 3.382-1.883 2.102 0 3.583 1.225 3.583 4.105v6.583h-2.422v-6.4c0-1.582-.64-2.304-2.084-2.304-.67-.042-1.326.209-1.798.688-.472.478-.713 1.138-.661 1.808v6.162h-2.422V12.242zm11.683 5.404v-.156c0-3.337 1.974-5.485 4.698-5.485 1.374-.086 2.676.625 3.346 1.828v-6.4h2.422v15.269h-2.422v-1.756c-.725 1.214-2.034 1.957-3.447 1.957-2.623 0-4.57-1.829-4.57-5.266m8.117-.12v-.146c0-2.304-1.06-3.437-2.824-3.437-1.765 0-2.816 1.243-2.816 3.501v.156c0 2.304 1.161 3.401 2.742 3.401 1.582 0 2.926-1.125 2.926-3.465m5.84-3.465h-1.416v-1.829h1.417v-1.39c0-2.304 1.28-3.538 3.519-3.538.468-.012.935.056 1.38.201V9.39c-.353-.122-.724-.184-1.097-.183-.978 0-1.38.64-1.38 1.536v1.5h2.377v1.828h-2.377v8.64h-2.422v-8.65zm6.81 4.882v-6.702h2.423v6.4c0 1.582.658 2.304 2.057 2.304.668.034 1.318-.222 1.785-.701.467-.48.706-1.136.655-1.804v-6.217h2.423v10.478h-2.423v-1.673c-.656 1.203-1.95 1.917-3.318 1.828-2.057 0-3.601-1.18-3.601-3.959m12.404-6.701h2.422v1.7c.666-1.232 1.985-1.966 3.382-1.883 2.103 0 3.574 1.225 3.574 4.105v6.583h-2.422v-6.4c0-1.582-.64-2.304-2.084-2.304-.67-.042-1.326.209-1.798.688-.472.478-.713 1.138-.661 1.808v6.162h-2.422l.009-10.46zM195.88 7.35h2.423v9.49l3.738-4.571h2.642l-4.059 4.8 4.406 5.66h-2.797l-3.921-5.148v5.147h-2.423l-.009-15.378zm15.841 1.006h3.181l6.024 10.34V8.402h2.423v14.3h-2.743l-6.398-10.972v10.972h-2.423l-.064-14.345zm13.995 9.142v-.164c-.11-1.993.894-3.882 2.605-4.907 1.712-1.025 3.85-1.018 5.555.02 1.704 1.036 2.694 2.932 2.571 4.923v.156c-.1 2.882-2.456 5.171-5.34 5.189-2.882.017-5.265-2.245-5.4-5.125m8.227 0v-.22c0-2.157-1.079-3.483-2.88-3.483-1.8 0-2.897 1.298-2.897 3.465v.156c0 2.139 1.06 3.483 2.897 3.483 1.838 0 2.953-1.307 2.953-3.447m3.382-5.303h2.596l2.742 7.982 2.743-7.982h2.376l-3.784 10.469h-2.825l-3.848-10.469zm11.444 5.404v-.156c0-3.337 2.103-5.485 4.617-5.485 1.333-.054 2.58.655 3.217 1.828v-1.59h2.422v10.459h-2.422v-1.673c-.704 1.166-1.956 1.89-3.318 1.92-2.44 0-4.525-1.829-4.525-5.267m7.925-.119v-.192c0-2.322-1.078-3.437-2.742-3.437-1.663 0-2.742 1.243-2.742 3.501v.165c0 2.295 1.16 3.401 2.623 3.401 1.463 0 2.816-1.124 2.816-3.465" mask="url(#prefix__b)"/>
    </g>
</svg>
