<svg xmlns="http://www.w3.org/2000/svg" xmlns:xlink="http://www.w3.org/1999/xlink" width="30" height="80" viewBox="0 0 30 80">
    <defs>
        <path id="prefix__a" d="M0 0.139L29.905 0.139 29.905 80 0 80z"/>
    </defs>
    <g fill="none" fill-rule="evenodd">
        <path fill="#444" d="M13.722 65.342c-.042-.163-.07-.33-.081-.498-.481-7.28.162-14.64 1.932-21.836C17.45 35.38 20.593 27.938 25 21c-5.476 6.183-9.94 13.204-13.204 20.818-3.092 7.211-5.108 14.954-5.883 22.993-.012.127-.036.252-.064.375C3.549 66.462 2 68.857 2 71.604 2 75.689 5.426 79 9.651 79c4.226 0 7.651-3.311 7.651-7.396 0-2.639-1.43-4.953-3.58-6.262"/>
        <path fill="#444" d="M13.741 63.223c-.046-.188-.076-.38-.088-.575-.523-8.411.176-16.913 2.1-25.225C17.793 28.611 21.21 20.013 26 12c-5.952 7.142-10.804 15.253-14.352 24.048-3.361 8.33-5.553 17.275-6.395 26.562-.013.146-.038.29-.07.433C2.684 64.517 1 67.283 1 70.456 1 75.175 4.723 79 9.316 79c4.594 0 8.317-3.825 8.317-8.544 0-3.048-1.554-5.72-3.892-7.233"/>
        <mask id="prefix__b" fill="#fff">
            <use xlink:href="#prefix__a"/>
        </mask>
        <path fill="#444" d="M15.241 61.194c-.055-.224-.09-.453-.105-.685-.625-10.026.21-20.16 2.512-30.066C20.088 19.939 24.176 9.692 29.905.139c-7.12 8.514-12.923 18.182-17.168 28.664-4.02 9.93-6.642 20.59-7.649 31.66-.016.175-.046.347-.084.517C2.014 62.737 0 66.034 0 69.816 0 75.44 4.454 80 9.948 80c5.495 0 9.949-4.56 9.949-10.184 0-3.633-1.86-6.82-4.656-8.622" mask="url(#prefix__b)"/>
    </g>
</svg>
