<svg xmlns="http://www.w3.org/2000/svg" width="47" height="48" viewBox="0 0 47 48">
    <g fill="none" fill-rule="evenodd" stroke="#505050" stroke-width="2">
        <path d="M12 38L20 38M13 32L14 33 18 33 19 32M7 41L7 47M25 41L25 47M28 34v.857C27.938 37.321 24.437 46 16 46S4.063 37.321 4 34.857V34M30.96 14.943l.078-.831C30.76 6.369 25.608 0 16 0 6.42 0 1.207 6.34.889 14.112l.072.83" transform="translate(1 1)"/>
        <path stroke-linecap="round" d="M11.304 5.968C11.434 10.655 23.24 11.938 25 14M13.391 8.968c-2.1.574-5.14 1.782-7.39 5.032" transform="translate(1 1)"/>
        <path stroke-linejoin="round" d="M27.294 17H4.706C.272 17 0 20.358 0 24.5 0 28.642 2.157 32 6.59 32c6.828-.724 7.568-3.44 9.41-3.44 1.842 0 2.583 2.716 9.409 3.44 4.435 0 6.59-3.358 6.59-7.5 0-4.142-.27-7.5-4.705-7.5z" transform="translate(1 1)"/>
        <path d="M38.12.44L44.632 2.983 44.345 3.72 35.932 9.116 35.586 9.999 42.098 12.543M39.398 16L44.452 17.979 44.243 18.512 37.87 22.311 37.62 22.951 42.672 24.93M39.895 28.747L43.999 30.354 43.831 30.788 38.654 33.873 38.452 34.393 42.556 36" transform="translate(1 1)"/>
    </g>
</svg>
