<svg xmlns="http://www.w3.org/2000/svg" width="48" height="41" viewBox="0 0 48 41">
    <g fill="none" fill-rule="evenodd" stroke="#505050" stroke-width="2">
        <path d="M5 24.924c0-2.104 1.728-3.5 3.857-3.5h1.287c2.129 0 3.856 1.396 3.856 3.5v.5" transform="translate(1)"/>
        <path d="M46 28.424v-3c0-1.657-1.343-3-3-3 0 0-14.125-2-19-2s-6.47.349-8 2c-1.583 1.708-4 6-4 6" transform="translate(1)"/>
        <path d="M5 28.424L5 14.424 0 14.424 0 39.424 3 39.424 5 34.424 41 34.424 43 39.424 46 39.424 46 28.424zM31.61.991L39.565 2.027 39.448 2.927 31.568 11.259 31.427 12.338 39.382 13.374M20.668 6.197L27.635 7.021 27.542 7.808 20.735 15.176 20.624 16.123 27.591 16.947M10 6.639L15.012 5.424 15.149 5.991 12.345 12.809 12.51 13.49 17.521 12.275" transform="translate(1)"/>
    </g>
</svg>
