<svg xmlns="http://www.w3.org/2000/svg" width="53" height="53" viewBox="0 0 53 53">
    <g fill="#231F20" fill-rule="evenodd">
        <path d="M26 8L27 8 27 0 26 0zM13 4.39L17.248 11 18 10.61 13.752 4zM11 17.248L4.39 13 4 13.752 10.61 18zM0 27L8 27 8 26 0 26zM4 39.248L4.39 40 11 35.751 10.61 35zM13 48.61L13.752 49 18 42.39 17.248 42zM26 53L27 53 27 45 26 45zM35 42.39L39.248 49 40 48.61 35.752 42zM42 35.751L48.61 40 49 39.248 42.39 35zM45 27L53 27 53 26 45 26zM49 13.752L48.61 13 42 17.248 42.39 18zM40 4.39L39.248 4 35 10.61 35.752 11zM33.122 32.908c-.256-.36-.515-.716-.777-1.07-.13-.177-.262-.353-.395-.528l-.399-.526c-.269-.347-.535-.697-.808-1.04-.271-.346-.544-.69-.82-1.031-.274-.343-.551-.683-.831-1.02-.192-.236-.388-.468-.583-.701.067-.19.106-.395.106-.609 0-.209-.037-.408-.101-.595l.649-.585c.301-.27.596-.547.894-.82.296-.274.596-.545.889-.824l.882-.831c.294-.278.583-.56.875-.84.292-.28.582-.561.869-.846.287-.285.578-.566.862-.854l.856-.86.846-.871.838-.88.83-.888C38.901 15.493 39.982 14.28 41 13c-1.348.923-2.631 1.915-3.9 2.924l-.945.764-.935.774-.928.782-.919.792c-.307.264-.607.534-.912.8-.304.267-.605.536-.904.808-.3.27-.602.539-.9.813l-.891.822c-.299.272-.59.552-.886.828-.293.278-.59.552-.88.834l-.716.69c-.152-.041-.311-.066-.477-.066-.998 0-1.807.814-1.807 1.818s.81 1.818 1.807 1.818c.24 0 .468-.048.677-.133.19.193.38.386.573.577.309.31.62.618.936.923.312.308.629.611.946.914.316.304.639.602.959.903l.485.446c.161.149.324.296.488.443.327.295.656.586.99.874.166.145.333.288.503.43.17.141.338.284.51.422-.12-.186-.247-.367-.372-.55-.125-.182-.251-.363-.38-.542"/>
    </g>
</svg>
