<svg xmlns="http://www.w3.org/2000/svg" xmlns:xlink="http://www.w3.org/1999/xlink" width="58" height="52" viewBox="0 0 58 52">
    <defs>
        <path id="prefix__a" d="M0 0.071L25.862 0.071 25.862 35.849 0 35.849z"/>
    </defs>
    <g fill="none" fill-rule="evenodd">
        <path stroke="#323035" stroke-linecap="round" stroke-linejoin="round" stroke-width="2" d="M45.521 7.741c-1.238 2.773-4.49 4.018-7.262 2.78-2.773-1.237-4.018-4.489-2.78-7.262C36.717.486 39.969-.76 42.74.479c2.773 1.238 4.018 4.489 2.78 7.262zM45.632 13.67l.013.009c-.013-.008 9.762-1.596 9.762-1.596.503-.198 1.084-.032 1.388.398l.012.017c.366.518.196 1.221-.371 1.537L44 20M40 20L42 16M41 15L42 16M29.784 19.614L13.19 47.75c-.416.747-.126 1.69.638 2.075l.024.012c.561.283 1.24.19 1.702-.235L33.84 31.839 38 23.563l-.53-9.589-1.816-1.018c-1.256-.926-2.88-1.199-4.37-.733l-9.679 3.372-5.116 9.255c-.265.48-.116 1.083.343 1.384l.016.011c.456.3 1.065.203 1.405-.224l5.536-6.96 9.008-2.242M35.964 33L42 39.346l-9.65 8.311c-.568.49-1.43.45-1.95-.087l-.017-.018c-.476-.493-.512-1.25-.087-1.784l4.576-5.737-2.908-2.874" transform="translate(0 1)"/>
        <g transform="translate(0 1) translate(0 11)">
            <mask id="prefix__b" fill="#fff">
                <use xlink:href="#prefix__a"/>
            </mask>
            <path fill="#0BCDFC" d="M25.862.071L0 4.698s3.914 6.147 2.556 11.066C1.2 20.683-1.2 31.827 10.53 35.849l15.222-25.648-1.5.402-4.766 6.07c-1.16 1.002-2.867.993-4.016-.021l-.039-.034c-1.057-.933-1.361-2.472-.741-3.747l5.197-10.114L25.862.071z" mask="url(#prefix__b)"/>
        </g>
    </g>
</svg>
