<svg xmlns="http://www.w3.org/2000/svg" width="214" height="21" viewBox="0 0 214 21">
    <g fill="#961618">
        <path d="M198 18.864h.774c1.262 0 1.463-.143 1.463-1.45V2.586c0-1.306-.201-1.449-1.463-1.449H198V0l1.92.085c.632.029 1.263.029 1.922.029h6.452c1.462 0 2.839-.057 4.158-.114l.23 4.716h-1.205c-.46-2.954-.918-3.239-3.355-3.239h-5.018V8.75h2.61c3.584 0 3.842-.057 3.842-1.59V6.59h1.146v6.193h-1.147v-.313c0-2.215-.458-2.329-2.867-2.357h-3.584v8.409h5.993c2.064 0 2.437-.142 3.642-3.381H214L212.968 20c-3.9-.057-7.8-.114-10.495-.114-2.294 0-3.498.057-4.473.114v-1.136zM179.124 3.53h-.088v14.5c0 1.352.205 1.5 1.492 1.5h1.023v1.176c-1.082-.059-2.193-.118-3.275-.118-1.082 0-2.194.06-3.276.118v-1.177h1.024c1.286 0 1.491-.147 1.491-1.5V2.677c0-1.353-.205-1.5-1.491-1.5H175V0c.877.059 1.784.118 2.69.118.907 0 1.814-.06 2.691-.118.193.474.449.919.76 1.324l10.764 14.352h.059v-13c0-1.352-.205-1.5-1.492-1.5h-1.024V0c1.112.059 2.194.118 3.276.118 1.082 0 2.165-.06 3.276-.118v1.176h-1.024c-1.287 0-1.492.148-1.492 1.5V21h-1.286L179.124 3.53zM164 19.864h1.03c1.293 0 1.5-.143 1.5-1.478v-14.8c0-1.308-.207-1.45-1.5-1.45H164V1c1.323.057 2.677.114 4 .114s2.677-.057 4-.114v1.136h-1.03c-1.293 0-1.5.142-1.5 1.45v14.8c0 1.335.207 1.478 1.5 1.478H172V21c-1.323-.057-2.676-.114-4-.114-1.324 0-2.677.057-4 .114v-1.136zM147 19.864h.988c1.241 0 1.439-.143 1.439-1.45V3.586c0-1.307-.198-1.449-1.44-1.449H147V1c1.27.057 2.568.114 3.838.114s2.568-.057 3.837-.114v1.136h-.987c-1.242 0-1.44.142-1.44 1.45v15.937h5.39c2.427 0 2.907-.341 3.472-1.932l.705-2.017H163L161.984 21c-2.878-.057-5.784-.114-8.691-.114-2.117 0-4.205.057-6.293.114v-1.136zM128.124 3.53h-.088v14.5c0 1.352.205 1.5 1.492 1.5h1.023v1.176c-1.082-.059-2.193-.118-3.275-.118-1.082 0-2.194.06-3.276.118v-1.177h1.024c1.286 0 1.491-.147 1.491-1.5V2.677c0-1.353-.205-1.5-1.491-1.5H124V0c.877.059 1.784.118 2.69.118.907 0 1.814-.06 2.691-.118.193.474.449.919.76 1.324l10.764 14.352h.059v-13c0-1.352-.205-1.5-1.492-1.5h-1.024V0c1.112.059 2.194.118 3.276.118 1.082 0 2.165-.06 3.276-.118v1.176h-1.024c-1.287 0-1.492.148-1.492 1.5V21h-1.286L128.124 3.53z"/>
        <path d="M114 0c6.192 0 10 4.06 10 10.21 0 5.627-3.43 10.79-10.262 10.79-7.064 0-9.738-5.308-9.738-10.326C104 4.409 107.867 0 114 0zm-.29 19.724c5.145 0 7.034-4.322 7.034-9.572 0-4.699-1.947-8.876-6.715-8.876-3.808 0-6.773 3.133-6.773 9.137 0 6.44 2.878 9.31 6.453 9.31zM98 14.235L94.348 14.235 94.348 17.765 89.478 17.765 89.478 4.235 91 4.235 91 1 84 1 84 4.235 85.826 4.235 85.826 17.765 84 17.765 84 21 98 21zM82 7.015L82 1 68 1 68 4.235 69.826 4.235 69.826 17.765 68 17.765 68 21 82 21 82 14.235 78.348 14.235 78.348 17.765 73.478 17.765 73.478 12.176 80.123 12.176 80.123 8.997 73.478 8.997 73.478 4.235 78.348 4.235 78.348 7.015zM62.4 12.176v5.589h-4.8V4.235h4.8v2.872H66V3.268C65.972 2.012 64.93 1.006 63.648 1h-7.324c-1.276.008-2.31 1.018-2.324 2.268v15.486c.035 1.256 1.09 2.255 2.372 2.246H66V8.997h-6.9v3.18h3.3zM52 7.015L52 1 38 1 38 4.235 39.845 4.235 39.845 17.765 38 17.765 38 21 52 21 52 14.235 48.329 14.235 48.329 17.765 43.433 17.765 43.433 12.176 50.111 12.176 50.111 8.997 43.433 8.997 43.433 4.235 48.329 4.235 48.329 7.015zM36 4.235L36 1 29 1 29 4.235 30.75 4.235 30.75 17.765 29 17.765 29 21 36 21 36 17.765 34.25 17.765 34.25 4.235zM25.565 1H14v3.235h1.834v13.53H14V21h7.304v-3.235h-1.801v-5.589h6.062c1.303 0 2.435-.813 2.435-2.04V3.267C27.982 2.014 26.927 1.005 25.63 1m-1.282 7.997h-4.845V4.235h4.845v4.762zM3.512 8.997V4.235h4.976v2.927H12V3.268C11.981 2.015 10.969 1.008 9.722 1H2.269C1.023 1.008.014 2.017 0 3.268v8.908h8.488v5.589H3.512v-3.53H0v4.519C.016 20 1.028 21.002 2.269 21H9.73c1.243.006 2.256-.998 2.269-2.246V8.997H3.512z"/>
    </g>
</svg>
