<svg version="1" xmlns="http://www.w3.org/2000/svg" width="413.333" height="413.333" viewBox="0 0 310.000000 310.000000"><path d="M0 155v155h310V0H0v155zM105.7 24.4c13 3.2 16.1 5.1 26 15.7 4.4 4.8 6.6 23.4 3.9 33.5-1.8 6.8-2.2 7.4-9.9 15.3-3.7 3.8-6.7 7.6-6.7 8.4 0 .8 1.7 2.2 3.8 3 3.8 1.5 13.2 10.6 13.2 12.8 0 .6 1 2.5 2.2 4.2 2 2.7 2.3 4.8 2.7 13.9.3 10.7.3 10.8-3.5 18.8-5.5 11.9-10.9 16.5-24.5 20.9l-10.4 3.5-32.6.4c-28.2.3-32.8.2-34.1-1.1-1-1-1.8-4.4-2.2-9.4-.9-11.7-.6-130.8.4-136.1 1.4-7.5.8-7.4 32.5-6.9 26.6.3 28.6.5 39.2 3.1zm151 114.5c12.6 4.2 23.6 10.5 24.8 14.1.8 2.5-5 14.7-7.7 16.4-2.1 1.3-7.8-.5-12.4-4-1.8-1.3-8.2-3.6-15.5-5.5-14.2-3.6-17.7-3.6-31.4.6-9.4 2.9-17.7 8.5-19.1 12.9-.4 1.1-1.9 3.9-3.5 6.1-2 3-3.5 7.2-5.3 16.3-1.4 6.7-2.6 14.2-2.6 16.6 0 6.3 3.8 24.4 6.1 29.1 3.2 6.7 7.2 13 8.6 13.8.8.5 2.9 2.1 4.6 3.7 4.3 3.7 18.9 8 27.4 8 7.8 0 25.7-4.4 30.3-7.6 4.7-3.1 10.9-5.6 12.6-5 .7.3 2.9 3.9 5 8.1 2.9 6.2 3.4 8.1 2.6 9.9-1.4 3.2-12.1 9.1-24.1 13.3l-10.6 3.7H230c-16-.1-16.7-.2-24-3.1-4.1-1.7-8.9-3.3-10.7-3.7-1.7-.4-3.7-1.4-4.3-2.1-.7-.8-3.1-2.5-5.4-3.9-4.4-2.6-17.6-15.9-17.6-17.7 0-.6-1.1-2.4-2.5-4.1-1.3-1.6-2.9-4.8-3.5-7.1-.6-2.3-2.3-7.1-3.8-10.7-2.5-6.2-2.6-7.3-2.6-25 0-17.6.1-18.8 2.6-24.5 1.4-3.3 2.9-7.6 3.3-9.5 1.1-5.1 8.9-16.5 16.4-23.7 3.6-3.5 6.8-6.3 7.2-6.3.3 0 2.3-1.3 4.3-2.9 2-1.6 5.3-3.2 7.3-3.6 2.1-.4 5.8-1.6 8.3-2.8 5.9-2.7 10.8-3.4 26.7-3.6 12.8-.1 13.5 0 25 3.8z"/><path d="M47.5 32c-4.7 1.8-4.8 2.5-4.6 30.1.1 14.3.5 26.7.7 27.4 1.1 2.8 6.8 3.5 26.8 3.5 21.2-.1 30-1.1 39.5-4.9 6.5-2.5 9.5-5.2 14.1-12.8 3.3-5.5 3.5-6.2 3.5-14.9-.1-8.9-.2-9.5-3.5-14.1-6.7-9.6-10.4-11.6-24.9-13.8-10.9-1.6-48-2-51.6-.5zM48.2 101.7c-5.6.7-5.8 1.8-5.2 32.6l.5 27.8L46 164c2.3 1.8 4.4 2 25.5 2 21.3 0 23.8-.2 34.3-2.6 16.2-3.8 20.5-7.6 24.2-21.9 1.5-5.8 1.2-10.2-.9-17.9-3.5-12.5-14.3-20-31.2-21.6-9.2-.9-43.1-1.1-49.7-.3z"/></svg>